<svg xmlns="http://www.w3.org/2000/svg" xmlns:xlink="http://www.w3.org/1999/xlink" width="500" zoomAndPan="magnify" viewBox="0 0 375 374.999991" height="500" preserveAspectRatio="xMidYMid meet" version="1.0"><defs><clipPath id="01a0141d8d"><path d="M 187.5 0 C 83.945312 0 0 83.945312 0 187.5 C 0 291.054688 83.945312 375 187.5 375 C 291.054688 375 375 291.054688 375 187.5 C 375 83.945312 291.054688 0 187.5 0 " clip-rule="nonzero"/></clipPath><clipPath id="c23a5d08ea"><path d="M 55.222656 50.488281 L 319.972656 50.488281 L 319.972656 324 L 55.222656 324 Z M 55.222656 50.488281 " clip-rule="nonzero"/></clipPath></defs><g clip-path="url(#01a0141d8d)"><rect x="-37.5" width="450" fill="#ffffff" y="-37.499999" height="449.999989" fill-opacity="1"/></g><g clip-path="url(#c23a5d08ea)"><path fill="#000000" d="M 317.363281 108.4375 L 189.402344 51.171875 C 188.828125 50.917969 188.226562 50.789062 187.597656 50.789062 C 186.96875 50.789062 186.367188 50.917969 185.792969 51.171875 L 57.832031 108.4375 C 57.445312 108.609375 57.085938 108.835938 56.765625 109.109375 C 56.441406 109.386719 56.164062 109.703125 55.933594 110.058594 C 55.699219 110.417969 55.523438 110.800781 55.402344 111.207031 C 55.285156 111.613281 55.222656 112.03125 55.222656 112.457031 L 55.222656 262.21875 C 55.222656 262.644531 55.285156 263.0625 55.402344 263.46875 C 55.523438 263.875 55.699219 264.257812 55.933594 264.613281 C 56.164062 264.972656 56.441406 265.289062 56.765625 265.5625 C 57.085938 265.839844 57.445312 266.066406 57.832031 266.238281 L 185.792969 323.503906 C 186.367188 323.757812 186.96875 323.886719 187.597656 323.886719 C 188.226562 323.886719 188.828125 323.757812 189.402344 323.503906 L 317.363281 266.238281 C 317.753906 266.066406 318.109375 265.839844 318.433594 265.5625 C 318.753906 265.289062 319.03125 264.972656 319.261719 264.613281 C 319.496094 264.257812 319.671875 263.875 319.792969 263.46875 C 319.914062 263.0625 319.972656 262.644531 319.972656 262.21875 L 319.972656 112.457031 C 319.972656 112.03125 319.914062 111.613281 319.792969 111.207031 C 319.671875 110.800781 319.496094 110.417969 319.261719 110.058594 C 319.03125 109.703125 318.753906 109.386719 318.433594 109.109375 C 318.109375 108.835938 317.753906 108.609375 317.363281 108.4375 Z M 183.1875 312.683594 L 64.046875 259.367188 L 64.046875 119.558594 L 183.1875 172.871094 Z M 187.597656 165.191406 L 70.082031 112.605469 L 187.597656 60.019531 L 305.113281 112.605469 Z M 311.148438 259.367188 L 192.011719 312.683594 L 192.011719 172.871094 L 311.148438 119.558594 Z M 311.148438 259.367188 " fill-opacity="1" fill-rule="nonzero"/></g></svg>