<svg xmlns="http://www.w3.org/2000/svg" xmlns:xlink="http://www.w3.org/1999/xlink" width="364" zoomAndPan="magnify" viewBox="0 0 273 95.999999" height="128" preserveAspectRatio="xMidYMid meet" version="1.0"><defs><g/><clipPath id="f0eb9c3975"><path d="M 0.742188 0.441406 L 92.683594 0.441406 L 92.683594 95.664062 L 0.742188 95.664062 Z M 0.742188 0.441406 " clip-rule="nonzero"/></clipPath></defs><g clip-path="url(#f0eb9c3975)"><path fill="#ffffff" d="M 91.777344 20.597656 L 47.339844 0.675781 C 46.921875 0.492188 46.503906 0.492188 46.085938 0.675781 L 1.648438 20.597656 C 1.375 20.71875 1.15625 20.910156 0.992188 21.160156 C 0.824219 21.414062 0.742188 21.691406 0.742188 21.996094 L 0.742188 74.089844 C 0.742188 74.394531 0.824219 74.671875 0.992188 74.925781 C 1.15625 75.179688 1.375 75.367188 1.648438 75.488281 L 46.085938 95.410156 C 46.503906 95.597656 46.921875 95.597656 47.339844 95.410156 L 91.777344 75.488281 C 92.054688 75.367188 92.273438 75.179688 92.4375 74.925781 C 92.601562 74.671875 92.683594 74.394531 92.683594 74.089844 L 92.683594 21.996094 C 92.683594 21.691406 92.601562 21.414062 92.4375 21.160156 C 92.273438 20.910156 92.054688 20.71875 91.777344 20.597656 Z M 45.179688 91.644531 L 3.808594 73.097656 L 3.808594 24.464844 L 45.179688 43.011719 Z M 46.714844 40.339844 L 5.902344 22.046875 L 46.714844 3.753906 L 87.523438 22.046875 Z M 89.617188 73.097656 L 48.246094 91.644531 L 48.246094 43.011719 L 89.617188 24.464844 Z M 89.617188 73.097656 " fill-opacity="1" fill-rule="nonzero"/></g><g fill="#ffffff" fill-opacity="1"><g transform="translate(124.20203, 61.655009)"><g><path d="M 3.140625 0 L 3.140625 -32.375 L 15.125 -32.375 C 17.71875 -32.375 19.859375 -31.941406 21.546875 -31.078125 C 23.242188 -30.210938 24.507812 -29.023438 25.34375 -27.515625 C 26.175781 -26.003906 26.59375 -24.3125 26.59375 -22.4375 C 26.59375 -20.644531 26.191406 -19 25.390625 -17.5 C 24.585938 -16.007812 23.335938 -14.804688 21.640625 -13.890625 C 19.941406 -12.984375 17.769531 -12.53125 15.125 -12.53125 L 9.0625 -12.53125 L 9.0625 0 Z M 9.0625 -17.34375 L 14.75 -17.34375 C 16.820312 -17.34375 18.3125 -17.796875 19.21875 -18.703125 C 20.125 -19.617188 20.578125 -20.863281 20.578125 -22.4375 C 20.578125 -24.039062 20.125 -25.296875 19.21875 -26.203125 C 18.3125 -27.109375 16.820312 -27.5625 14.75 -27.5625 L 9.0625 -27.5625 Z M 9.0625 -17.34375 "/></g></g></g><g fill="#ffffff" fill-opacity="1"><g transform="translate(159.428904, 61.655009)"><g><path d="M 18.3125 0.5625 C 15.070312 0.5625 12.242188 -0.144531 9.828125 -1.5625 C 7.410156 -2.988281 5.515625 -4.957031 4.140625 -7.46875 C 2.765625 -9.976562 2.078125 -12.882812 2.078125 -16.1875 C 2.078125 -19.488281 2.765625 -22.394531 4.140625 -24.90625 C 5.515625 -27.414062 7.410156 -29.378906 9.828125 -30.796875 C 12.242188 -32.222656 15.070312 -32.9375 18.3125 -32.9375 C 21.519531 -32.9375 24.34375 -32.222656 26.78125 -30.796875 C 29.21875 -29.378906 31.113281 -27.414062 32.46875 -24.90625 C 33.820312 -22.394531 34.5 -19.488281 34.5 -16.1875 C 34.5 -12.882812 33.820312 -9.976562 32.46875 -7.46875 C 31.113281 -4.957031 29.21875 -2.988281 26.78125 -1.5625 C 24.34375 -0.144531 21.519531 0.5625 18.3125 0.5625 Z M 18.3125 -4.765625 C 21.394531 -4.765625 23.851562 -5.78125 25.6875 -7.8125 C 27.519531 -9.851562 28.4375 -12.644531 28.4375 -16.1875 C 28.4375 -19.726562 27.519531 -22.515625 25.6875 -24.546875 C 23.851562 -26.585938 21.394531 -27.609375 18.3125 -27.609375 C 15.226562 -27.609375 12.757812 -26.585938 10.90625 -24.546875 C 9.0625 -22.515625 8.140625 -19.726562 8.140625 -16.1875 C 8.140625 -12.644531 9.0625 -9.851562 10.90625 -7.8125 C 12.757812 -5.78125 15.226562 -4.765625 18.3125 -4.765625 Z M 18.3125 -4.765625 "/></g></g></g><g fill="#ffffff" fill-opacity="1"><g transform="translate(203.160928, 61.655009)"><g><path d="M 3.140625 0 L 3.140625 -32.375 L 14.203125 -32.375 C 17.992188 -32.375 21.113281 -31.703125 23.5625 -30.359375 C 26.007812 -29.015625 27.828125 -27.132812 29.015625 -24.71875 C 30.203125 -22.300781 30.796875 -19.457031 30.796875 -16.1875 C 30.796875 -12.914062 30.203125 -10.070312 29.015625 -7.65625 C 27.828125 -5.238281 26.007812 -3.359375 23.5625 -2.015625 C 21.113281 -0.671875 17.992188 0 14.203125 0 Z M 9.0625 -5.09375 L 13.921875 -5.09375 C 16.628906 -5.09375 18.769531 -5.53125 20.34375 -6.40625 C 21.914062 -7.28125 23.039062 -8.539062 23.71875 -10.1875 C 24.40625 -11.84375 24.75 -13.84375 24.75 -16.1875 C 24.75 -18.5 24.40625 -20.488281 23.71875 -22.15625 C 23.039062 -23.820312 21.914062 -25.097656 20.34375 -25.984375 C 18.769531 -26.878906 16.628906 -27.328125 13.921875 -27.328125 L 9.0625 -27.328125 Z M 9.0625 -5.09375 "/></g></g></g><g fill="#ffffff" fill-opacity="1"><g transform="translate(243.195058, 61.655009)"><g><path d="M 3.140625 0 L 3.140625 -32.375 L 9.0625 -32.375 L 9.0625 -4.625 L 23.40625 -4.625 L 23.40625 0 Z M 3.140625 0 "/></g></g></g></svg>